<svg xmlns="http://www.w3.org/2000/svg" height="512" viewBox="0 0 24 24" width="512"><path d="M22.25 1h-2.5C18.785 1 18 1.785 18 2.75v11.5c0 .965.785 1.75 1.75 1.75h2.5c.965 0 1.75-.785 1.75-1.75V2.75C24 1.785 23.215 1 22.25 1zM5.119.75c-1.95 0-3.61 1.4-3.94 3.32l-1.12 6.5a3.998 3.998 0 003.94 4.68h4.72s-.75 1.5-.75 4c0 3 2.25 4 3.25 4s1.5-.5 1.5-3c0-2.376 2.301-4.288 3.781-5.273V2.589C14.899 1.848 11.694.75 6.719.75z" data-original="#000000" class="active-path" data-old_color="#000000" fill="#FFF"/></svg>