<svg xmlns="http://www.w3.org/2000/svg" viewBox="0 0 155.129 155.129" width="512" height="512"><path d="M4.454 71.061c-7.858 7.829-5.43 23.653 8.181 23.653l35.813-.024c-1.36 7.584-3.33 20.156-3.252 21.338.752 11.248 7.924 24.93 8.228 25.485 1.307 2.434 7.906 5.734 14.553 4.32 8.586-1.838 9.463-7.315 9.428-8.825 0 0-.376-14.983-.406-18.981 4.099-9.022 18.253-32.71 22.555-34.536a6.515 6.515 0 003.395.949h45.247a6.928 6.928 0 006.934-6.934l-.006-62.533c-.269-3.371-3.127-6.015-6.516-6.015h-40.634c-3.604 0-6.54 2.93-6.54 6.534v2.076s-1.51.107-2.196-.328c-2.608-1.659-5.842-3.747-10.054-3.747H28.542c-22.674 0-20.234 20.126-18.169 22.871-3.831 4.171-6.2 11.528-2.966 17.34C4.913 56.34.545 63.572 4.454 71.061zm104.903-55.552h39.256v62.407h-39.256V15.509zm-94.33 56.089l.37-1.545c-10.448-2.971-4.887-15.007 2.602-15.794l.37-1.545C8.35 50.165 13.13 37.766 20.976 36.918l.364-1.539c-8.181-1.343-6.2-15.305 6.194-15.305l61.685-.024c4.356 0 8.324 4.964 11.534 4.964h2.793v48.033c-3.485 2.166-7.763 4.964-10.15 6.993-4.499 3.837-22.913 33.593-22.913 37.317 0 3.723.412 19.834.412 19.834s-3.616 4.648-11.671 1.259c0 0-6.784-12.727-7.476-22.859 0 0 3.049-20.884 4.696-27.442H13.678c-10.495-.005-8.49-15.012 1.349-16.551z" data-original="#010002" class="active-path" data-old_color="#010002" fill="#FFF"/></svg>