<svg version="1.1" id="Layer_1" xmlns="http://www.w3.org/2000/svg" x="0" y="0" viewBox="0 0 160 100" xml:space="preserve"><style>.st2{fill:#003087}</style><switch><g><path d="M8 99c-3.8 0-7-3.2-7-7V8c0-3.8 3.2-7 7-7h144c3.8 0 7 3.2 7 7v84c0 3.8-3.2 7-7 7H8z" fill-rule="evenodd" clip-rule="evenodd" fill="#fff"/><path d="M152 2c3.3 0 6 2.7 6 6v84c0 3.3-2.7 6-6 6H8c-3.3 0-6-2.7-6-6V8c0-3.3 2.7-6 6-6h144zm0-2H8C3.6 0 0 3.6 0 8v84c0 4.4 3.6 8 8 8h144c4.4 0 8-3.6 8-8V8c0-4.4-3.6-8-8-8z" fill="#e6e6e6"/><path class="st2" d="M100.9 20.2c-3.3-3.7-9.1-5.4-16.7-5.4H62.5c-1.4 0-2.9 1-3.1 2.7l-9.1 57.6c-.2 1 .6 2.1 1.7 2.1h13.6l3.3-21.5v.8c.2-1.4 1.4-2.7 3.1-2.7h6.4c12.6 0 22.3-5.2 25.2-19.8 0-.4.2-.8.2-1.2.9-5.6 0-9.3-2.9-12.6"/><path class="st2" d="M100.9 20.2c-3.3-3.7-9.1-5.4-16.7-5.4H62.5c-1.4 0-2.9 1-3.1 2.7l-9.1 57.6c-.2 1 .6 2.1 1.7 2.1h13.6l3.3-21.5v.8c.2-1.4 1.4-2.7 3.1-2.7h6.4c12.6 0 22.3-5.2 25.2-19.8 0-.4.2-.8.2-1.2.9-5.6 0-9.3-2.9-12.6"/><path class="st2" d="M72.7 32.8c.2-1.2 1.4-2.3 2.7-2.3h17.1c2.1 0 3.9.2 5.6.4 1 .2 1.9.4 2.9.6s2.1.6 3.1 1.2c.8-5.4 0-9.1-2.9-12.6-3.3-3.7-9.1-5.4-16.7-5.4h-22c-1.4 0-2.9 1-3.1 2.7L50.3 75c-.2 1 .6 2.1 1.7 2.1h13.6l3.3-21.5 3.8-22.8z"/><path d="M103.8 32.8c0 .4-.2.8-.2 1.2-2.9 14.7-12.8 19.8-25.2 19.8H72c-1.4 0-2.9 1-3.1 2.7l-3.3 20.8-1 6c-.2.8.4 1.7 1.4 1.9h11.6c1.4 0 2.5-1 2.7-2.3l.2-.6 2.1-13.6.2-.8c.2-1.2 1.4-2.3 2.7-2.3h1.7c10.9 0 19.6-4.5 22.1-17.3 1-5.4.4-9.9-2.3-13-.9-1.3-1.9-1.9-3.2-2.5" fill="#009cde"/><path d="M100.7 31.5c-.4-.2-.8-.2-1.4-.4-.4 0-1-.2-1.4-.2-1.7-.2-3.5-.4-5.6-.4H75.1c-1.4 0-2.5 1-2.7 2.3l-3.5 22.9v.8c.2-1.4 1.4-2.7 3.1-2.7h6.4c12.6 0 22.3-5.2 25.2-19.8 0-.4.2-.8.2-1.2-.8-.4-1.7-.8-2.3-1-.2-.3-.6-.3-.8-.3" fill="#012169"/></g></switch></svg>